<?xml version="1.0" standalone="no"?>
<!DOCTYPE svg PUBLIC "-//W3C//DTD SVG 20010904//EN"
 "http://www.w3.org/TR/2001/REC-SVG-20010904/DTD/svg10.dtd">
<svg version="1.0" xmlns="http://www.w3.org/2000/svg"
 width="1080.000000pt" height="1080.000000pt" viewBox="0 0 1080.000000 1080.000000"
 preserveAspectRatio="xMidYMid meet">
<metadata>
Created by potrace 1.14, written by Peter Selinger 2001-2017
</metadata>
<g transform="translate(0.000000,1080.000000) scale(0.100000,-0.100000)"
fill="#000000" stroke="none">
<path d="M7635 7823 c-298 -23 -473 -50 -690 -108 -453 -119 -911 -365 -1195
-641 l-65 -64 -120 118 c-143 141 -294 245 -507 350 -401 198 -816 291 -1439
323 -199 10 -321 9 -780 -6 -533 -17 -1416 -17 -1736 1 l-113 7 0 -91 c0 -87
1 -92 22 -97 13 -2 138 -21 278 -40 140 -20 267 -38 283 -41 l27 -6 0 -2137 0
-2137 -282 -32 c-156 -18 -293 -35 -306 -38 -21 -4 -22 -9 -22 -90 l0 -86
1298 5 c1329 5 1359 6 1680 47 631 83 1146 292 1499 609 l99 88 105 -101 c326
-315 875 -551 1484 -637 420 -59 945 -64 1395 -14 293 33 912 141 931 163 3 4
14 216 23 472 9 256 19 489 22 518 l5 52 -115 0 -115 0 -70 -217 c-38 -120
-97 -304 -130 -408 l-61 -191 -73 -28 c-153 -60 -374 -103 -642 -126 -182 -15
-553 -13 -676 5 -406 57 -717 210 -999 494 -348 349 -510 860 -510 1612 0 671
136 1167 420 1539 66 86 237 255 325 322 242 183 529 296 865 339 142 18 441
15 590 -5 154 -22 359 -66 505 -109 l110 -33 120 -467 120 -467 129 0 129 0
-7 123 c-3 67 -13 358 -22 647 -9 289 -17 526 -18 526 0 1 -345 16 -766 33
-700 29 -892 33 -1005 24z m-4068 -274 c283 -23 545 -80 686 -149 211 -103
459 -367 577 -615 86 -182 160 -447 194 -700 54 -393 58 -880 11 -1253 -68
-531 -256 -951 -540 -1202 -264 -234 -552 -333 -1094 -375 -166 -14 -246 -14
-521 -5 -179 7 -328 15 -333 19 -4 4 -6 963 -5 2132 l3 2124 70 8 c220 25 740
34 952 16z"/>
</g>
</svg>
