<svg clip-rule="evenodd" fill-rule="evenodd" stroke-linejoin="round" stroke-miterlimit="2" viewBox="0 0 854 638" xmlns="http://www.w3.org/2000/svg"><g fill="currentColor" fill-rule="nonzero"><path d="m514.171 242.78c0 159.474-97.803 239.211-293.409 239.211h-220.762v-17.138l60.657-7.14v-427.722l-60.657-8.569v-18.566c21.629 1.428 46.786 2.142 75.468 2.142h67.71l87.458-2.856c42.789 0 80.288 3.57 112.497 10.711s61.715 19.28 88.516 36.417c55.015 35.227 82.522 99.731 82.522 193.51zm-106.502.715c0-82.355-15.282-139.48-45.845-171.375-9.875-10.949-19.044-19.161-27.507-24.635-8.464-5.474-19.044-9.64-31.739-12.496-17.398-4.284-37.852-6.903-61.362-7.855h-10.58c-34.325 0-59.481 1.19-75.468 3.571v426.294l65.594 2.142c44.669-1.904 77.819-8.093 99.449-18.566 58.305-28.086 87.458-93.78 87.458-197.08z"/><path d="m686.266 0 155.168 6.427 4.232 129.958h-25.391l-23.981-93.541c-32.444-10.949-63.713-16.424-93.806-16.424-55.954 0-101.329 18.685-136.124 56.054-34.796 37.369-52.079 92.59-52.079 165.662s16.813 126.746 50.668 161.02c33.855 34.275 76.526 51.413 128.014 51.413 51.487 0 88.751-5.713 111.791-17.138l26.097-81.402h22.57l-4.232 104.966c-58.776 12.853-110.146 19.28-154.11 19.28-43.965 0-81.464-3.689-112.497-11.068-31.034-7.379-60.187-19.399-87.459-36.06s-48.549-40.701-63.83-72.12c-15.282-31.419-23.759-68.843-23.759-112.639 0-43.795 8.712-82.657 24.464-116.217 15.752-33.561 37.029-60.1 63.831-79.618 53.603-39.035 117.081-58.553 190.433-58.553z"/><path d="m149.194 633.157h-48.466v-4.126l13.108-1.547-4.485-88.185-34.668 93.858h-9.141l-41.395-92.998-3.277 84.574 14.488 4.298v4.126h-35.358v-4.126l14.316-4.985 3.449-100.046-14.66-1.719v-3.953h34.323l38.98 90.591 33.633-90.591h36.738l.173 3.953-14.833 1.719 3.794 103.484 13.281 1.547z"/><path d="m310.807 633.157h-50.709v-4.126l13.971-1.547-15.868-39.537h-38.808l-13.798 36.615 15.35 4.469v4.126h-36.048v-4.126l13.109-4.469 41.739-106.234h12.074l45.707 109.156 13.281 1.547zm-55.194-51.57-16.903-41.772-16.902 41.772z"/><path d="m381.523 573.164h5.864c18.398 0 27.597-8.767 27.597-26.301 0-8.48-1.783-14.64-5.347-18.479-3.565-3.839-9.199-5.759-16.903-5.759-4.944 0-8.681.229-11.211.688zm-2.932-55.18 19.317-.516c27.367 0 41.05 9.799 41.05 29.395 0 8.71-3.104 15.815-9.314 21.316-6.209 5.5-14.2 8.251-23.974 8.251h-3.967c13.108 1.719 22.106 5.672 26.993 11.861 4.887 6.188 7.33 15.585 7.33 28.191 0 7.793 1.61 12.549 4.83 14.268 1.149.688 2.845 1.031 5.088 1.031 2.242 0 5.318-.916 9.227-2.75l.173 4.126c-6.21 2.635-12.534 3.953-18.973 3.953-12.878 0-20.64-4.813-23.285-14.439-.919-4.011-1.379-9.025-1.379-15.042 0-6.016-.374-10.657-1.122-13.923-.747-3.266-1.868-5.931-3.363-7.994-3.334-5.042-9.601-7.563-18.8-7.563h-6.899v49.335l13.108 1.547v4.126h-48.639v-4.126l12.764-1.375v-103.999l-14.834-2.063v-4.298c9.659.459 18.341.688 26.045.688z"/><path d="m545.378 633.157h-52.951v-4.126l15.005-1.547v-103.484l-15.005-1.547v-4.125h52.951v4.125l-15.006 1.547v103.484l15.006 1.547z"/><path d="m677.496 518.328h34.841v4.125l-12.074 4.126v106.578h-11.728l-76.753-94.201v85.777l14.488 4.298v4.126h-34.496v-4.126l12.591-4.298v-100.733l-15.005-1.547v-4.125h32.426l68.991 85.606v-77.527l-13.281-3.954z"/><path d="m758.044 633.157v-4.126l15.005-1.547v-103.484l-15.005-1.547v-4.125h87.964v24.409h-5.519l-6.727-18.221-37.773-.516v46.241h33.461l5.347-12.72h4.829v31.973h-5.002l-5.174-13.064h-33.461v51.226l42.947-.516 8.969-19.596h5.52l-2.07 25.613z"/></g></svg>