<svg fill-rule="evenodd" stroke-linejoin="round" stroke-miterlimit="2" viewBox="0 0 1080 277" xmlns="http://www.w3.org/2000/svg"><g fill="currentColor" fill-rule="nonzero"><path d="m292.603 138.161c0 90.752-55.658 136.129-166.973 136.129h-125.63v-9.753l34.518-4.063v-243.407l-34.518-4.876v-10.566c12.309.813 26.625 1.219 42.947 1.219h38.532l49.771-1.625c24.35 0 45.69 2.032 64.019 6.095 18.33 4.064 35.12 10.972 50.373 20.725 31.307 20.046 46.961 56.754 46.961 110.122zm-60.608.406c0-46.866-8.697-79.375-26.089-97.525-5.62-6.231-10.838-10.904-15.654-14.019-4.817-3.116-10.837-5.486-18.062-7.112-9.901-2.438-21.54-3.928-34.92-4.47h-6.02c-19.534 0-33.85.678-42.947 2.032v242.594l37.327 1.219c25.421-1.083 44.286-4.605 56.594-10.565 33.181-15.983 49.771-53.368 49.771-112.154z"/><path d="m390.538 0 88.303 3.657 2.408 73.957h-14.449l-13.647-53.233c-18.464-6.23-36.258-9.346-53.383-9.346-31.843 0-57.664 10.633-77.466 31.899-19.801 21.266-29.636 52.691-29.636 94.274 0 41.584 9.568 72.128 28.834 91.634 19.266 19.505 43.549 29.257 72.849 29.257 29.301 0 50.507-3.251 63.618-9.752l14.851-46.325h12.844l-2.408 59.734c-33.448 7.315-62.682 10.972-87.701 10.972s-46.358-2.1-64.019-6.299c-17.66-4.199-34.251-11.039-49.771-20.521-15.519-9.481-27.628-23.162-36.324-41.041-8.696-17.88-13.52-39.177-13.52-64.1 0-24.924 4.957-47.039 13.921-66.137 8.964-19.099 21.073-34.202 36.325-45.309 30.504-22.214 66.628-33.321 108.371-33.321z"/><path d="m501.28 190.568h-39.829v-3.391l10.773-1.271-3.686-72.468-28.489 77.13h-7.512l-34.018-76.424-2.693 69.502 11.906 3.531v3.391h-29.056v-3.391l11.764-4.096 2.835-82.215-12.048-1.413v-3.249h28.206l32.033 74.446 27.639-74.446h30.191l.141 3.249-12.189 1.413 3.118 85.04 10.914 1.271z"/><path d="m634.089 190.568h-41.671v-3.391l11.481-1.271-13.04-32.491h-31.891l-11.339 30.089 12.614 3.673v3.391h-29.623v-3.391l10.772-3.673 34.301-87.3h9.922l37.56 89.702 10.914 1.271zm-45.356-42.379-13.891-34.327-13.89 34.327z"/><path d="m692.202 141.267h4.819c15.119 0 22.679-7.205 22.679-21.613 0-6.969-1.465-12.031-4.394-15.186-2.93-3.155-7.56-4.732-13.891-4.732-4.063 0-7.134.188-9.213.565zm-2.409-45.345 15.875-.424c22.489 0 33.733 8.052 33.733 24.156 0 7.157-2.551 12.996-7.654 17.516-5.102 4.521-11.669 6.781-19.701 6.781h-3.26c10.772 1.412 18.166 4.662 22.182 9.747s6.024 12.808 6.024 23.167c0 6.404 1.323 10.312 3.969 11.725.944.565 2.338.847 4.181.847 1.842 0 4.37-.753 7.583-2.26l.142 3.391c-5.103 2.166-10.3 3.249-15.592 3.249-10.583 0-16.961-3.956-19.134-11.866-.756-3.297-1.134-7.417-1.134-12.361s-.307-8.758-.922-11.442c-.614-2.684-1.535-4.874-2.764-6.569-2.74-4.144-7.89-6.216-15.449-6.216h-5.67v40.543l10.772 1.271v3.391h-39.97v-3.391l10.489-1.13v-85.464l-12.19-1.695v-3.532c7.938.377 15.072.566 21.403.566z"/><path d="m826.854 190.568h-43.514v-3.391l12.332-1.271v-85.04l-12.332-1.272v-3.39h43.514v3.39l-12.331 1.272v85.04l12.331 1.271z"/><path d="m935.426 96.204h28.632v3.39l-9.922 3.391v87.583h-9.638l-63.074-77.412v70.49l11.906 3.531v3.391h-28.348v-3.391l10.347-3.531v-82.78l-12.331-1.272v-3.39h26.647l56.695 70.349v-63.71l-10.914-3.249z"/><path d="m1001.62 190.568v-3.391l12.332-1.271v-85.04l-12.332-1.272v-3.39h72.287v20.059h-4.535l-5.528-14.973-31.041-.424v37.999h27.497l4.394-10.453h3.969v26.275h-4.111l-4.252-10.736h-27.497v42.096l35.293-.424 7.37-16.104h4.536l-1.701 21.049z"/></g></svg>